<?xml version="1.0"?>
<svg width="512" height="512" xmlns="http://www.w3.org/2000/svg" xmlns:svg="http://www.w3.org/2000/svg">
 <!--! Font Awesome Free 6.4.0 by @fontawesome - https://fontawesome.com License - https://fontawesome.com/license (Commercial License) Copyright 2023 Fonticons, Inc. -->

 <g class="layer">
  <title>Layer 1</title>
  <path d="m225.8,468.2l-2.5,-2.3l-175.2,-162.7c-30.7,-28.5 -48.1,-68.5 -48.1,-110.4l0,-3.3c0,-70.4 50,-130.8 119.2,-144c39.4,-7.6 79.7,1.5 111.8,24.1c9,6.4 17.4,13.8 25,22.3c4.2,-4.8 8.7,-9.2 13.5,-13.3c3.7,-3.2 7.5,-6.2 11.5,-9c0,0 0,0 0,0c32.1,-22.6 72.4,-31.7 111.8,-24.2c69.2,13.2 119.2,73.7 119.2,144.1l0,3.3c0,41.9 -17.4,81.9 -48.1,110.4l-175.2,162.7l-2.5,2.3c-8.2,7.6 -19,11.9 -30.2,11.9s-22,-4.2 -30.2,-11.9z" fill="#901c1c" id="svg_1"/>
 </g>
</svg>